<?xml version="1.0" encoding="utf-8"?>
<!-- Generator: Adobe Illustrator 26.5.0, SVG Export Plug-In . SVG Version: 6.00 Build 0)  -->
<svg version="1.1" id="Layer_1" xmlns="http://www.w3.org/2000/svg" xmlns:xlink="http://www.w3.org/1999/xlink" x="0px" y="0px"
	 viewBox="0 0 752 752" style="enable-background:new 0 0 752 752;" xml:space="preserve">
<style type="text/css">
	.st0{fill:#FFFFFF;stroke:#000000;stroke-miterlimit:10;}
	.st1{fill:#007AFF;}
</style>
<circle class="st0" cx="376" cy="376" r="266.5"/>
<g>
	<path d="M320.6,426.9c4.9-6.3,9.7-12.5,14.6-18.6c32.8-41.2,69.3-78.5,113.8-107.2c20.2-13,41.6-23.5,64.9-29.7
		c6.6-1.7,11.2,1.4,11,7.1c-0.1,2.8-1.9,4.5-4,6c-32.5,23.9-62.4,50.8-90.5,79.7c-22,22.6-42.2,46.6-61.7,71.4
		c-12.9,16.4-25.7,32.8-38.5,49.2c-2.6,3.3-6.2,4.9-9.7,4.7"/>
	<path class="st1" d="M320.5,489.6c-0.5,0-1.3-0.1-2.1-0.4c0,0-2.1-0.6-3.8-2.4c-27.3-27.7-50-58.5-63-95.6
		c-2.5-7.1-3.8-14.5-4.5-21.9c-0.3-3.4,0.4-6.4,3.4-8.4c2.9-1.9,5.9-1.3,8.8,0.3c12.6,7.3,22.7,17.3,32.3,28.1
		c11,12.5,19.9,25.4,28,36.3c0.7,0.9,1,1.3,1,1.4C328,437.4,331.6,455.7,320.5,489.6z"/>
</g>
</svg>
