<?xml version="1.0" encoding="UTF-8"?>
<svg id="Layer_1" data-name="Layer 1" xmlns="http://www.w3.org/2000/svg" viewBox="0 0 400 400">
  <defs>
    <style>
      .cls-1 {
        fill: #fff;
      }

      .cls-2 {
        fill: #007aff;
      }
    </style>
  </defs>
  <path class="cls-1" d="M200.919353504943501,345.059315794840586c-57.214474697530022,0-114.428945163928802-.003621163532443-171.643399895806397,.028292455264818-1.058280871121497,.000575325046157-1.276288870203643-.217845137012773-1.275953222439966-1.275867898930301,.030313134944663-95.555043325637598,.030313168000248-191.110078190613422,.000000033055585-286.665104066134518-.00033563123543-1.058026066863931,.217730331047278-1.275944937228815,1.275944727120077-1.275668280176433,114.428933660540679,.029913762759861,228.857874593340057,.029913762759861,343.28682398840192,.000000033050128,1.058223023615938-.000276640527773,1.276278639457814,.217641552322675,1.275940148903828,1.275667982730738-.030328753771755,95.555026139916663-.030328753771755,191.110061004892486,0,286.665104330530085,.000338490553986,1.058022761917528-.217683276232492,1.276443223976457-1.275940148903828,1.275834056279564-57.214483159794327-.031913618797262-114.428949395061863-.028258612614081-171.643415630331219-.028258612614081Z"/>
  <path d="M144.594448911757354,250.912126702505702c4.944297694923989-6.303548880339804,9.715736725423994-12.466363101324532,14.570300574087923-18.563048784522834,32.793235807895144-41.18372975679813,69.297275877465836-78.450578906526971,113.817838546189705-107.165377750942753,20.183531767026579-13.017947529725461,41.588489778994699-23.482953617189196,64.917021919676699-29.656377508898004,6.563298021812443-1.736842862718731,11.214936782460427,1.36969664560911,10.970851242900608,7.094379691447102-.119927203808402,2.813140655549432-1.921204694825065,4.531095089327209-3.962708933071553,6.0271940320863-32.549827249442387,23.853687155182342-62.375194791366084,50.784618774926457-90.507178706835475,79.66745906678625-21.984436918432039,22.571219939534785-42.222601061113892,46.630433507187263-61.682067680899308,71.36917364096189-12.880750353173426,16.375256843028183-25.651787455049998,32.836727836525824-38.526935789530398,49.216401145360578-2.579552244508704,3.281692069758719-6.221589245817995,4.936159048378613-9.682113302359539,4.672460394540394"/>
  <path class="cls-2" d="M144.50946044921875,313.574394226074219c-.541671752929688-.041007995605469-1.29547119140625-.144416809082031-2.148666381835938-.423927307128906-.000091552734375-.000030517578125-2.097900390625-.635353088378906-3.847442626953125-2.41375732421875-27.26171875-27.711563110351562-49.988273620605469-58.462600708007812-62.954368591308594-95.5955810546875-2.476722717285156-7.092971801757812-3.830718994140625-14.45111083984375-4.474090576171875-21.938888549804688-.291397094726562-3.391326904296875,.380020141601562-6.440841674804688,3.401107788085938-8.389068603515625,2.923919677734375-1.88555908203125,5.90875244140625-1.323379516601562,8.779563903808594,.338287353515625,12.570106506347656,7.275741577148438,22.734855651855469,17.316741943359375,32.255340576171875,28.08843994140625,11.046112060546875,12.497833251953125,19.92376708984375,25.35589599609375,28.038375854492188,36.276901245117188,.664321899414062,.894058227539062,.996475219726562,1.341094970703125,1.035171508789062,1.39532470703125,7.4537353515625,10.444778442382812,11.049560546875,28.747856140136719-.084991455078125,62.662269592285156Z"/>
</svg>